<svg width="510" height="510" viewBox="0 0 510 510" fill="none" xmlns="http://www.w3.org/2000/svg">
<rect width="510" height="510" rx="108" fill="#F7F4EF"/>
<path d="M333.385 225.341C328.498 225.341 325.02 224.354 322.952 222.38C320.884 220.5 319.85 218.244 319.85 215.613C319.85 211.571 321.354 207.811 324.362 204.334C327.276 200.95 330.894 198.224 335.218 196.157C340.105 193.901 345.651 192.068 351.854 190.658C358.152 189.248 364.167 187.697 369.901 186.006C371.686 182.904 373.331 179.379 374.835 175.432C376.339 171.39 377.702 167.489 378.924 163.73C380.146 159.876 381.132 156.727 381.884 154.284C380.756 156.351 379.3 158.889 377.514 161.897C375.822 164.811 373.895 167.677 371.733 170.497C369.572 173.317 367.222 175.667 364.684 177.546C362.24 179.426 359.656 180.366 356.93 180.366C355.896 180.366 354.627 180.131 353.123 179.661C351.713 179.191 350.444 178.345 349.317 177.123C348.283 175.808 347.766 173.881 347.766 171.343C347.766 168.899 348.518 166.22 350.021 163.307C351.525 160.299 353.029 157.338 354.533 154.425C354.063 154.425 353.64 154.378 353.264 154.284C352.982 154.19 352.841 153.814 352.841 153.156C353.123 152.592 353.687 151.37 354.533 149.49C355.379 147.61 356.319 145.542 357.353 143.287C358.481 141.031 359.468 139.057 360.313 137.365C361.347 135.203 362.475 133.7 363.697 132.854C365.013 132.008 366.282 131.585 367.504 131.585H376.245C375.587 132.149 374.741 132.807 373.707 133.559C372.767 134.217 371.874 135.25 371.028 136.66C368.491 140.984 366.282 145.167 364.402 149.208C362.522 153.156 360.501 157.385 358.34 161.897C357.306 164.059 356.554 166.033 356.084 167.818C355.614 169.604 355.379 171.155 355.379 172.471C355.379 175.573 356.413 177.123 358.481 177.123C360.736 177.123 363.462 175.291 366.658 171.625C369.29 168.523 371.921 164.858 374.553 160.628C377.279 156.304 379.864 151.887 382.307 147.375C384.845 142.77 387.054 138.54 388.934 134.687C389.968 132.619 391.8 131.585 394.432 131.585H402.186C399.461 133.465 397.346 135.908 395.842 138.916C394.432 141.924 392.834 145.777 391.048 150.477C389.075 155.647 387.195 161.004 385.409 166.549C383.623 172.095 381.649 177.781 379.488 183.609C384.093 182.011 387.947 179.943 391.048 177.405C394.15 174.868 396.876 171.625 399.226 167.677C401.669 163.636 404.113 158.795 406.557 153.156C407.685 153.156 408.249 153.579 408.249 154.425C406.181 158.748 404.301 162.555 402.609 165.845C400.918 169.134 399.038 172.048 396.97 174.586C394.902 177.029 392.317 179.285 389.216 181.353C386.114 183.515 382.119 185.583 377.232 187.556C374.976 191.598 372.391 195.781 369.478 200.104C366.658 204.522 363.415 208.61 359.75 212.37C356.178 216.224 352.183 219.325 347.766 221.675C343.442 224.119 338.649 225.341 333.385 225.341ZM330.001 222.521C333.103 222.521 336.299 221.581 339.588 219.701C342.878 217.822 346.074 215.425 349.176 212.511C352.277 209.691 355.097 206.778 357.635 203.77C360.266 200.856 362.381 198.271 363.979 196.016C364.449 195.358 364.966 194.512 365.53 193.478C366.094 192.444 366.658 191.457 367.222 190.517C362.616 191.739 357.541 193.055 351.995 194.465C346.544 195.969 341.797 197.613 337.756 199.399C333.244 201.279 329.719 203.958 327.182 207.436C324.55 210.913 323.234 214.015 323.234 216.741C323.234 218.432 323.798 219.795 324.926 220.829C325.96 221.957 327.652 222.521 330.001 222.521Z" fill="#714E37"/>
<path d="M329.453 180.789C325.975 180.789 323.39 179.755 321.699 177.687C320.101 175.526 319.302 172.988 319.302 170.074C319.302 167.066 319.725 163.965 320.571 160.769C321.417 157.573 322.169 154.895 322.826 152.733C324.33 147.469 326.21 141.877 328.466 135.955C330.816 129.94 333.353 124.066 336.079 118.332C338.899 112.505 341.672 107.288 344.397 102.683C346.559 99.017 348.862 96.2912 351.306 94.5054C353.844 92.6256 356.052 91.6857 357.932 91.6857C359.436 91.6857 360.611 92.2496 361.457 93.3775C362.397 94.4114 362.867 96.0093 362.867 98.171C362.867 99.6749 362.585 101.461 362.021 103.529C361.551 105.596 360.705 107.946 359.483 110.578C356.193 117.909 352.246 125.24 347.64 132.572C343.129 139.903 337.395 146.764 330.44 153.156C329.312 155.787 328.372 158.607 327.62 161.615C326.868 164.623 326.492 167.066 326.492 168.946C326.492 174.774 328.466 177.687 332.414 177.687C335.421 177.687 338.758 175.526 342.424 171.202C346.089 166.784 349.567 160.769 352.857 153.156C353.233 153.156 353.609 153.25 353.984 153.438C354.36 153.532 354.548 153.861 354.548 154.425C353.515 156.962 352.199 159.782 350.601 162.884C349.097 165.891 347.311 168.758 345.243 171.484C343.27 174.21 340.967 176.465 338.335 178.251C335.703 179.943 332.743 180.789 329.453 180.789ZM331.568 148.644C334.951 145.166 338.241 141.172 341.437 136.66C344.632 132.055 347.593 127.308 350.319 122.421C353.139 117.439 355.488 112.74 357.368 108.322C358.026 106.912 358.543 105.361 358.919 103.67C359.389 101.978 359.624 100.568 359.624 99.4399C359.624 98.124 359.295 97.4661 358.637 97.4661C358.261 97.4661 357.697 97.8421 356.945 98.594C356.193 99.2519 355.206 100.427 353.984 102.119C352.199 104.468 350.225 107.664 348.063 111.706C345.995 115.747 343.88 120.071 341.719 124.676C339.557 129.282 337.583 133.747 335.797 138.07C334.011 142.3 332.602 145.824 331.568 148.644Z" fill="#714E37"/>
<path d="M301.991 180.366C298.514 180.366 296.07 179.379 294.66 177.405C293.25 175.338 292.545 172.988 292.545 170.356C292.545 168.946 292.686 167.536 292.968 166.127C293.344 164.623 293.767 163.26 294.237 162.038L303.683 137.929C303.965 137.177 304.106 136.519 304.106 135.955C304.106 135.016 303.871 134.217 303.401 133.559C302.931 132.807 302.602 132.29 302.414 132.008L310.169 131.726C311.578 131.632 312.565 131.82 313.129 132.29C313.787 132.666 314.116 133.136 314.116 133.7C314.116 134.264 313.787 135.298 313.129 136.801C312.189 139.057 310.921 141.877 309.323 145.261C307.725 148.644 306.127 152.122 304.529 155.694C303.025 159.265 301.709 162.602 300.582 165.704C299.548 168.805 299.031 171.202 299.031 172.894C299.031 174.116 299.313 175.15 299.877 175.996C300.535 176.842 301.615 177.264 303.119 177.264C305.093 177.264 307.02 176.513 308.9 175.009C310.874 173.411 312.706 171.39 314.398 168.946C316.09 166.503 317.641 163.871 319.051 161.051C320.555 158.231 321.823 155.6 322.857 153.156C323.985 153.156 324.549 153.579 324.549 154.425C323.609 156.774 322.387 159.453 320.884 162.461C319.38 165.469 317.641 168.335 315.667 171.061C313.787 173.693 311.672 175.902 309.323 177.687C307.067 179.473 304.623 180.366 301.991 180.366ZM314.539 122.985C313.317 122.985 312.236 122.515 311.296 121.575C310.451 120.635 310.028 119.507 310.028 118.191C310.028 116.593 310.686 115.183 312.001 113.962C313.317 112.646 314.774 111.988 316.372 111.988C317.688 111.988 318.816 112.411 319.756 113.257C320.696 114.103 321.166 115.183 321.166 116.499C321.166 118.191 320.508 119.695 319.192 121.011C317.876 122.327 316.325 122.985 314.539 122.985Z" fill="#714E37"/>
<path d="M212.636 181.071C216.113 174.398 219.403 167.724 222.505 161.051C225.607 154.284 228.755 147.892 231.951 141.877C233.831 138.493 235.382 136.143 236.603 134.828C237.919 133.418 239.658 132.713 241.82 132.713C242.572 132.713 243.371 132.854 244.217 133.136C245.063 133.324 245.909 133.418 246.754 133.418C247.318 133.418 247.741 133.371 248.023 133.277C246.707 134.029 245.016 135.908 242.948 138.916C240.88 141.83 238.765 145.214 236.603 149.067C234.442 152.921 232.515 156.539 230.823 159.923C232.609 157.761 234.442 155.6 236.321 153.438C238.295 151.276 240.457 149.208 242.807 147.234C244.875 145.449 247.036 143.522 249.292 141.454C251.642 139.292 253.945 137.459 256.201 135.955C258.456 134.452 260.43 133.7 262.122 133.7C262.78 133.7 263.203 133.747 263.391 133.841C265.177 134.593 266.07 135.814 266.07 137.506C266.07 138.07 265.835 138.916 265.365 140.044C264.143 143.24 262.545 146.529 260.571 149.913C258.691 153.203 256.905 156.539 255.214 159.923C256.624 158.231 258.362 156.164 260.43 153.72C262.592 151.276 264.754 149.114 266.916 147.234C268.983 145.355 271.615 143.381 274.811 141.313C278.006 139.245 281.155 137.459 284.257 135.955C287.359 134.452 289.849 133.7 291.729 133.7C292.387 133.7 292.857 133.747 293.139 133.841C293.139 133.841 292.622 134.781 291.588 136.66C290.554 138.446 289.238 140.843 287.641 143.851C286.137 146.764 284.586 149.913 282.988 153.297C281.39 156.586 279.933 159.782 278.617 162.884C277.395 165.892 276.597 168.429 276.221 170.497C275.939 171.719 275.798 172.847 275.798 173.881C275.798 175.385 276.08 176.372 276.644 176.842C277.208 177.311 277.818 177.546 278.476 177.546C280.356 177.546 282.189 176.748 283.975 175.15C285.855 173.552 287.687 171.531 289.473 169.087C291.259 166.55 292.857 163.871 294.267 161.051C295.771 158.231 297.04 155.6 298.073 153.156C299.201 153.156 299.765 153.579 299.765 154.425C298.731 156.962 297.416 159.782 295.818 162.884C294.314 165.892 292.575 168.758 290.601 171.484C288.627 174.21 286.466 176.466 284.116 178.251C281.766 180.037 279.228 180.93 276.503 180.93C274.529 180.93 272.649 180.272 270.863 178.956C269.171 177.64 268.325 175.197 268.325 171.625C268.325 167.771 269.218 163.918 271.004 160.064C272.884 156.21 274.811 152.686 276.785 149.49C277.724 147.892 278.194 146.623 278.194 145.684C278.194 144.556 277.63 143.992 276.503 143.992C275.563 143.992 274.247 144.462 272.555 145.402C270.957 146.341 268.936 147.986 266.493 150.336C264.989 151.746 263.203 153.72 261.135 156.257C259.161 158.701 257.14 161.38 255.073 164.294C253.005 167.207 251.219 170.074 249.715 172.894C248.211 175.714 247.224 178.204 246.754 180.366C245.345 180.366 244.217 179.802 243.371 178.674C242.525 177.452 242.102 176.043 242.102 174.445C242.102 174.163 242.102 173.881 242.102 173.599C242.102 173.317 242.149 172.988 242.243 172.612C242.713 169.698 243.465 167.254 244.499 165.281C245.533 163.213 246.707 160.816 248.023 158.09C248.681 156.868 249.433 155.459 250.279 153.861C251.125 152.169 251.877 150.571 252.535 149.067C253.193 147.469 253.522 146.153 253.522 145.12C253.522 144.18 253.146 143.71 252.394 143.71C251.548 143.71 250.42 144.133 249.01 144.979C247.694 145.825 246.425 146.811 245.204 147.939C243.982 148.973 243.042 149.772 242.384 150.336C240.034 152.592 237.167 155.835 233.784 160.064C230.494 164.294 226.875 170.309 222.928 178.11C222.364 179.144 221.706 179.802 220.954 180.084C220.202 180.272 219.027 180.366 217.429 180.366C216.395 180.366 215.549 180.366 214.892 180.366C214.14 180.46 213.388 180.695 212.636 181.071Z" fill="#714E37"/>
<path d="M144.86 188.684C135.085 188.684 127.002 187.321 120.61 184.596C114.313 181.87 109.613 178.298 106.512 173.881C103.504 169.463 102 164.764 102 159.782C102 154.143 103.457 149.02 106.371 144.415C109.284 139.809 113.091 135.814 117.79 132.431C122.584 129.047 127.848 126.368 133.581 124.395C139.314 122.421 144.954 121.293 150.499 121.011C145.612 119.225 141.617 116.781 138.515 113.68C135.508 110.484 134.004 107.006 134.004 103.247C134.004 99.393 135.179 95.7273 137.529 92.2497C139.972 88.678 143.215 85.4353 147.257 82.5216C151.298 79.5139 155.857 76.9291 160.932 74.7674C166.102 72.6056 171.459 70.9607 177.005 69.8328C182.55 68.6109 187.908 68 193.077 68C201.442 68 208.116 69.4099 213.097 72.2296C218.079 75.0493 220.57 78.668 220.57 83.0855C220.57 87.1272 218.361 91.1218 213.943 95.0694C209.62 99.017 203.604 101.837 195.897 103.529C194.393 103.811 193.406 103.952 192.936 103.952C191.902 103.952 191.385 103.529 191.385 102.683C191.385 102.401 191.526 102.213 191.808 102.119C192.184 101.931 192.936 101.649 194.064 101.273C199.61 99.393 204.027 96.7612 207.317 93.3775C210.607 89.8999 212.251 86.2342 212.251 82.3806C212.251 79.0909 210.654 76.4592 207.458 74.4854C204.356 72.4176 199.657 71.3837 193.359 71.3837C187.72 71.3837 182.033 72.1826 176.3 73.7804C170.566 75.3783 165.303 77.6341 160.509 80.5478C155.716 83.4615 151.862 86.7982 148.948 90.5578C146.035 94.3175 144.578 98.4061 144.578 102.824C144.578 106.019 145.518 108.604 147.398 110.578C149.277 112.552 151.674 114.15 154.588 115.371C157.502 116.499 160.509 117.439 163.611 118.191C166.807 118.849 169.72 119.601 172.352 120.447C173.292 120.729 173.903 121.105 174.185 121.575C174.467 122.045 174.608 122.515 174.608 122.985C174.608 124.207 173.903 125.24 172.493 126.086C171.177 126.932 169.297 127.355 166.854 127.355C165.35 127.355 163.658 127.355 161.778 127.355C159.992 127.261 158.066 127.214 155.998 127.214C153.084 127.214 149.982 127.355 146.693 127.637C143.497 127.919 139.972 128.671 136.119 129.893C131.231 131.397 126.955 133.747 123.289 136.942C119.717 140.138 116.945 143.663 114.971 147.516C112.997 151.37 112.01 155.177 112.01 158.936C112.01 163.824 113.138 168.241 115.394 172.189C117.649 176.137 121.221 179.238 126.109 181.494C130.996 183.844 137.435 185.019 145.424 185.019C152.755 185.019 159.851 184.079 166.713 182.199C173.574 180.319 179.918 177.922 185.746 175.009C191.573 172.001 196.555 168.899 200.69 165.704C204.074 162.978 206.8 160.205 208.868 157.385C211.029 154.566 212.11 152.122 212.11 150.054C212.11 147.422 210.278 145.824 206.612 145.261C205.672 145.167 205.202 144.885 205.202 144.415C205.202 143.663 205.86 143.287 207.176 143.287C209.902 143.287 212.298 144.227 214.366 146.106C216.528 147.892 217.609 150.148 217.609 152.874C217.609 158.231 213.802 163.871 206.189 169.792C201.583 173.458 195.944 176.701 189.271 179.52C182.691 182.34 175.548 184.549 167.841 186.147C160.227 187.838 152.567 188.684 144.86 188.684Z" fill="#714E37"/>
<path d="M329.45 397.076C332.357 391.182 335.142 385.37 337.806 379.638C340.47 373.826 343.215 368.296 346.04 363.048C347.655 360.142 349.027 358.124 350.158 356.993C351.288 355.782 352.781 355.177 354.638 355.177C355.284 355.177 355.97 355.298 356.697 355.54C357.423 355.702 358.15 355.782 358.876 355.782C359.361 355.782 359.724 355.742 359.966 355.661C358.836 356.307 357.343 357.922 355.486 360.505C353.71 363.008 351.893 365.914 350.037 369.224C348.18 372.534 346.525 375.642 345.072 378.548C346.606 376.691 348.22 374.835 349.915 372.978C351.611 371.121 353.468 369.345 355.486 367.65C357.423 365.954 359.724 364.219 362.388 362.443C365.133 360.586 367.797 359.052 370.38 357.841C372.964 356.63 375.022 356.025 376.556 356.025C377.121 356.025 377.525 356.065 377.767 356.146C377.767 356.146 377.323 356.953 376.435 358.568C375.547 360.102 374.417 362.16 373.044 364.743C371.753 367.246 370.421 369.951 369.048 372.857C367.676 375.682 366.425 378.427 365.294 381.091C364.245 383.675 363.559 385.854 363.236 387.63C362.994 388.68 362.873 389.649 362.873 390.537C362.873 391.828 363.115 392.676 363.599 393.08C364.083 393.483 364.608 393.685 365.173 393.685C366.707 393.685 368.281 392.999 369.896 391.626C371.511 390.254 373.044 388.518 374.498 386.419C376.031 384.24 377.444 381.939 378.736 379.517C380.028 377.095 381.117 374.835 382.005 372.736C382.974 372.736 383.459 373.099 383.459 373.826C382.571 376.005 381.44 378.427 380.068 381.091C378.776 383.675 377.283 386.137 375.587 388.478C373.973 390.819 372.156 392.757 370.138 394.29C368.12 395.824 365.94 396.591 363.599 396.591C361.985 396.591 360.289 396.026 358.513 394.896C356.818 393.766 355.97 391.667 355.97 388.599C355.97 387.711 356.051 386.783 356.212 385.814C356.374 384.764 356.656 383.634 357.06 382.423C357.706 380.809 358.473 379.073 359.361 377.216C360.249 375.359 361.702 372.816 363.72 369.587C364.285 368.699 364.608 368.013 364.689 367.529C364.85 367.044 364.931 366.641 364.931 366.318C364.931 365.349 364.487 364.865 363.599 364.865C362.873 364.865 361.783 365.268 360.33 366.076C358.957 366.883 357.221 368.296 355.122 370.314C353.104 372.251 350.682 374.996 347.857 378.548C345.112 382.1 341.923 387.348 338.29 394.29C337.725 395.34 337.079 395.905 336.353 395.986C335.707 396.067 334.779 396.147 333.568 396.228C332.76 396.309 331.993 396.349 331.267 396.349C330.54 396.43 329.935 396.672 329.45 397.076Z" fill="#714E37"/>
<path d="M288.649 397.076C292.04 390.133 295.552 382.867 299.184 375.279C302.898 367.61 306.692 359.9 310.567 352.15C314.442 344.4 318.277 337.013 322.071 329.99C323.444 327.568 324.695 325.671 325.825 324.298C327.036 322.926 328.61 322.24 330.548 322.24C331.274 322.24 332.122 322.361 333.091 322.603C334.06 322.845 334.988 322.885 335.876 322.724C334.827 323.854 333.373 325.832 331.517 328.658C329.741 331.483 327.722 334.874 325.462 338.829C323.282 342.785 320.941 347.064 318.438 351.665C316.017 356.186 313.595 360.788 311.173 365.47C308.832 370.072 306.652 374.391 304.634 378.427C306.248 376.328 307.903 374.35 309.599 372.494C311.294 370.637 312.949 369.022 314.563 367.65C316.339 366.035 318.56 364.34 321.224 362.564C323.968 360.788 326.673 359.254 329.337 357.962C332.082 356.671 334.261 356.025 335.876 356.025C336.441 356.025 336.845 356.065 337.087 356.146C337.087 356.146 336.643 356.953 335.755 358.568C334.867 360.182 333.737 362.241 332.364 364.744C331.073 367.246 329.7 369.951 328.247 372.857C326.875 375.763 325.664 378.548 324.614 381.212C323.565 383.796 322.879 385.935 322.556 387.63C322.313 388.922 322.192 390.012 322.192 390.9C322.192 392.192 322.435 393.08 322.919 393.564C323.403 393.968 323.928 394.17 324.493 394.17C325.866 394.17 327.319 393.483 328.853 392.111C330.467 390.658 332.041 388.841 333.575 386.662C335.109 384.482 336.522 382.181 337.814 379.759C339.186 377.257 340.276 374.916 341.083 372.736C342.052 372.736 342.536 373.099 342.536 373.826C341.648 376.005 340.518 378.427 339.146 381.091C337.854 383.675 336.36 386.137 334.665 388.478C332.97 390.819 331.113 392.757 329.095 394.291C327.077 395.825 324.937 396.591 322.677 396.591C321.062 396.591 319.407 396.026 317.712 394.896C316.017 393.766 315.169 391.707 315.169 388.72C315.169 387.832 315.25 386.904 315.411 385.935C315.573 384.886 315.855 383.715 316.259 382.423C316.743 380.809 317.55 379.033 318.681 377.095C319.811 375.077 321.264 372.574 323.04 369.587C323.847 368.215 324.251 367.125 324.251 366.318C324.251 365.349 323.767 364.865 322.798 364.865C321.991 364.865 320.901 365.268 319.528 366.076C318.156 366.883 316.42 368.296 314.321 370.314C312.303 372.251 309.8 375.077 306.813 378.791C303.826 382.504 300.638 387.711 297.247 394.412C296.682 395.461 296.036 396.026 295.309 396.107C294.664 396.107 293.776 396.147 292.645 396.228C291.919 396.309 291.192 396.349 290.466 396.349C289.739 396.43 289.134 396.672 288.649 397.076Z" fill="#714E37"/>
<path d="M266.744 396.107C263.434 396.107 260.972 394.936 259.358 392.595C257.824 390.173 257.057 387.267 257.057 383.876C257.057 380.728 257.662 377.458 258.873 374.068C260.165 370.354 261.941 366.964 264.201 363.896C266.543 360.828 269.086 358.366 271.83 356.509C274.656 354.572 277.441 353.603 280.186 353.603C283.496 353.603 285.918 354.733 287.452 356.993C289.066 359.254 289.873 362.12 289.873 365.591C289.873 368.013 289.47 370.556 288.662 373.22C287.855 375.884 286.765 378.508 285.393 381.091C286.442 382.141 287.936 382.665 289.873 382.665C292.134 382.665 294.071 381.939 295.686 380.486C297.301 379.033 298.875 376.449 300.409 372.736C301.377 372.736 301.862 373.099 301.862 373.826C300.328 377.539 298.552 380.284 296.534 382.06C294.596 383.755 292.093 384.563 289.026 384.482C287.169 384.482 285.635 383.957 284.424 382.908C282.164 386.621 279.459 389.77 276.311 392.353C273.243 394.856 270.054 396.107 266.744 396.107ZM268.44 393.443C270.296 393.443 272.153 392.676 274.01 391.142C275.867 389.527 277.562 387.711 279.096 385.693C280.63 383.675 281.72 381.939 282.366 380.486C281.074 378.145 280.307 376.409 280.065 375.279C279.903 374.068 279.823 373.18 279.823 372.615C279.823 371.081 280.226 369.91 281.034 369.103C281.841 368.296 282.648 367.892 283.455 367.892C284.586 367.892 285.554 368.376 286.362 369.345C286.523 368.457 286.644 367.65 286.725 366.923C286.806 366.116 286.846 365.349 286.846 364.622C286.846 362.523 286.442 360.828 285.635 359.536C284.909 358.164 283.738 357.478 282.123 357.478C280.428 357.478 278.652 358.204 276.795 359.658C274.938 361.111 273.162 363.048 271.467 365.47C269.852 367.892 268.44 370.596 267.229 373.583C266.179 376.086 265.372 378.468 264.807 380.728C264.242 382.908 263.959 384.926 263.959 386.783C263.959 388.801 264.322 390.415 265.049 391.626C265.776 392.837 266.906 393.443 268.44 393.443Z" fill="#714E37"/>
<path d="M168.212 442.365C160.543 442.365 153.6 441.073 147.384 438.49C141.249 435.907 136.405 432.153 132.853 427.228C129.22 422.304 127.404 416.37 127.404 409.427C127.404 402.969 128.655 397.681 131.157 393.564C133.66 389.366 136.405 386.218 139.392 384.119C141.087 382.908 142.661 382.06 144.115 381.576C145.568 381.011 146.536 380.728 147.021 380.728C147.505 380.728 147.747 380.93 147.747 381.333C147.747 381.737 147.546 382.06 147.142 382.302C142.944 384.805 139.715 388.357 137.454 392.958C135.275 397.56 134.185 402.606 134.185 408.095C134.185 414.392 135.638 419.841 138.544 424.443C141.45 429.125 145.487 432.718 150.654 435.22C155.82 437.723 161.794 438.974 168.576 438.974C180.039 438.974 190.978 434.454 201.392 425.412C211.806 416.37 221.857 403.776 231.545 387.63C235.178 381.414 238.609 374.996 241.838 368.376C245.067 361.757 248.135 355.217 251.041 348.759C253.947 342.462 256.692 336.811 259.275 331.806C261.939 326.72 264.24 322.441 266.178 318.97C268.196 315.498 269.649 313.077 270.537 311.704C250.113 314.449 234.29 318.808 223.068 324.782C211.927 330.756 206.357 338.426 206.357 347.79C206.357 352.634 207.608 356.267 210.111 358.689C212.614 361.03 215.48 362.201 218.709 362.201C221.857 362.201 225.006 361.191 228.154 359.173C231.383 357.155 234.047 354.37 236.146 350.818C238.326 347.185 239.416 342.987 239.416 338.224C239.416 335.883 238.689 333.986 237.236 332.532C237.236 331.725 237.64 331.321 238.447 331.321C239.416 331.321 240.264 332.048 240.99 333.501C241.797 334.954 242.201 336.771 242.201 338.95C242.201 344.359 240.909 349.042 238.326 352.997C235.823 356.872 232.594 359.859 228.638 361.958C224.763 364.057 220.767 365.107 216.65 365.107C213.502 365.107 210.515 364.421 207.689 363.048C204.864 361.676 202.522 359.577 200.666 356.751C198.89 353.926 198.002 350.414 198.002 346.216C198.002 340.726 199.818 335.963 203.451 331.927C207.164 327.81 212.331 324.298 218.951 321.392C225.651 318.485 233.523 315.983 242.564 313.884C251.687 311.785 261.697 309.968 272.596 308.435C274.856 305.286 276.915 302.824 278.772 301.048C280.709 299.272 282.808 298.384 285.068 298.384C286.36 298.384 287.369 298.707 288.096 299.353C288.903 299.998 289.307 300.967 289.307 302.259C289.307 304.116 288.54 305.649 287.006 306.86C285.472 307.991 283.535 308.919 281.193 309.646C278.852 310.291 276.511 310.816 274.17 311.22C271.183 316.386 268.559 321.715 266.299 327.204C264.119 332.613 262.061 338.183 260.123 343.915C258.266 349.566 256.248 355.379 254.068 361.353C251.969 367.246 249.467 373.301 246.56 379.517C240.506 392.353 233.523 403.453 225.611 412.818C217.7 422.263 208.94 429.529 199.334 434.615C189.727 439.782 179.353 442.365 168.212 442.365ZM276.35 308.192C279.66 307.627 281.88 306.941 283.01 306.134C284.14 305.246 284.705 304.439 284.705 303.712C284.705 302.743 284.221 302.259 283.252 302.259C282.364 302.259 281.274 302.945 279.982 304.317C278.772 305.609 277.561 306.901 276.35 308.192Z" fill="#714E37"/>
<path d="M257.195 276C252.204 276 248.065 275.221 244.776 273.663C241.488 272.163 239.022 270.172 237.378 267.691C235.793 265.152 235 262.469 235 259.642C235 256.468 235.969 253.324 237.907 250.208C239.844 247.034 242.721 244.322 246.538 242.072C250.413 239.764 255.14 238.321 260.718 237.744C259.896 236.648 259.28 235.407 258.869 234.023C258.458 232.58 258.252 231.224 258.252 229.955C258.311 226.897 259.192 224.213 260.894 221.905C262.597 219.54 264.77 217.549 267.412 215.933C270.113 214.318 272.99 213.106 276.043 212.298C279.097 211.433 281.974 211 284.675 211C286.319 211 287.992 211.231 289.695 211.692C291.398 212.096 292.836 212.846 294.011 213.943C295.185 215.039 295.772 216.597 295.772 218.617C295.772 220.29 295.244 221.79 294.187 223.117C293.13 224.444 291.838 225.108 290.312 225.108C289.196 225.108 288.227 224.704 287.405 223.896C286.583 223.088 286.172 222.165 286.172 221.126C286.172 219.915 286.554 218.934 287.317 218.184C288.139 217.376 289.137 216.972 290.312 216.972C290.84 216.972 291.427 217.145 292.073 217.491C292.778 217.838 293.218 218.184 293.394 218.53C293.453 218.299 293.482 217.982 293.482 217.578C293.482 216.02 292.836 214.924 291.545 214.289C290.253 213.654 288.873 213.337 287.405 213.337C285.056 213.337 282.326 213.914 279.214 215.068C276.102 216.164 273.078 217.982 270.142 220.521C269.085 221.444 267.999 222.656 266.883 224.156C265.768 225.656 264.828 227.272 264.065 229.003C263.302 230.676 262.92 232.378 262.92 234.109C262.92 235.436 263.155 236.59 263.625 237.571C264.505 237.571 265.504 237.542 266.619 237.485C267.794 237.369 268.997 237.312 270.23 237.312C271.757 237.312 272.961 237.629 273.841 238.264C274.722 238.898 275.163 239.62 275.163 240.427C275.163 241.004 274.81 241.553 274.106 242.072C273.401 242.591 272.285 242.851 270.759 242.851C268.821 242.851 267.06 242.447 265.474 241.639C263.948 240.774 262.744 239.908 261.863 239.043C257.988 239.562 254.7 240.976 251.999 243.284C249.298 245.592 247.243 248.332 245.833 251.506C244.424 254.622 243.72 257.738 243.72 260.854C243.72 263.335 244.189 265.643 245.129 267.778C246.127 269.913 247.624 271.615 249.621 272.884C251.617 274.211 254.142 274.875 257.195 274.875C260.366 274.875 263.243 274.298 265.827 273.144C268.469 272.047 270.729 270.605 272.608 268.816C274.487 267.028 275.926 265.152 276.924 263.19C277.981 261.171 278.509 259.296 278.509 257.565C278.509 256.064 277.952 254.824 276.836 253.843C275.779 252.804 274.37 252.054 272.608 251.593C270.847 251.073 268.968 250.814 266.972 250.814C264.916 250.814 262.861 251.102 260.806 251.679C258.81 252.198 257.107 253.035 255.698 254.189C254.289 255.285 253.437 256.699 253.144 258.43C253.144 258.545 253.114 258.69 253.056 258.863C253.056 258.978 253.056 259.094 253.056 259.209C253.056 260.478 253.525 261.748 254.465 263.017C255.463 264.229 256.99 265.354 259.045 266.393C259.573 266.624 259.837 267.056 259.837 267.691C259.837 268.326 259.544 268.499 258.957 268.21C255.727 266.537 253.349 264.719 251.822 262.758C250.355 260.738 249.621 258.834 249.621 257.045C249.621 254.449 251.03 252.227 253.848 250.381C256.725 248.477 260.806 247.525 266.091 247.525H281.68C282.62 247.525 284 247.323 285.82 246.919C287.699 246.515 289.607 245.938 291.545 245.188C293.482 244.38 295.126 243.457 296.477 242.418C297.886 241.322 298.591 240.081 298.591 238.696C298.591 237.946 298.327 237.138 297.798 236.273C297.681 236.1 297.622 235.898 297.622 235.667C297.622 235.321 297.769 235.148 298.062 235.148C298.297 235.148 298.503 235.292 298.679 235.581C299.56 236.85 300 238.148 300 239.475C300 241.033 299.413 242.476 298.238 243.803C297.123 245.13 295.596 246.313 293.659 247.352C291.721 248.332 289.548 249.083 287.141 249.602C284.792 250.121 282.385 250.352 279.919 250.294C281.034 251.217 281.856 252.256 282.385 253.41C282.913 254.564 283.178 255.776 283.178 257.045C283.178 259.18 282.532 261.373 281.24 263.623C279.948 265.816 278.128 267.864 275.779 269.768C273.43 271.615 270.671 273.115 267.5 274.269C264.388 275.423 260.953 276 257.195 276ZM270.759 241.379C272.696 241.379 273.665 241.004 273.665 240.254C273.665 239.966 273.401 239.677 272.873 239.389C272.403 239.043 271.757 238.841 270.935 238.783C270.583 238.725 269.995 238.696 269.173 238.696C268.351 238.696 267.471 238.696 266.531 238.696C265.65 238.696 264.916 238.696 264.329 238.696C265.797 240.485 267.94 241.379 270.759 241.379Z" fill="#B59462"/>
</svg>
